<svg width="210" height="29" viewBox="0 0 210 29" fill="none" xmlns="http://www.w3.org/2000/svg">
<path d="M136.248 22.9844V6.49111H139.678V8.2394C140.25 7.55768 140.954 7.0189 141.79 6.62306C142.625 6.22722 143.527 6.0293 144.495 6.0293C145.11 6.0293 145.721 6.11176 146.325 6.2767V10.0372C145.896 9.87224 144.099 9.49289 143.67 9.49289C142.944 9.49289 142.279 9.67432 141.674 10.0372C141.069 10.389 140.586 10.8673 140.223 11.4721C139.86 12.0768 139.678 12.7476 139.678 13.4843V22.9844H136.248Z" fill="#353258"/>
<path d="M200.453 6.02983C202.059 6.02983 203.516 6.42017 204.824 7.20085C206.143 7.98153 207.194 9.03161 207.974 10.3511C208.755 11.6595 209.145 13.1165 209.145 14.7218C209.145 15.9203 208.92 17.0474 208.469 18.1029C208.018 19.1475 207.391 20.0711 206.589 20.8738C205.797 21.6655 204.874 22.2867 203.818 22.7376C202.773 23.1884 201.652 23.4138 200.453 23.4138C199.299 23.4138 198.287 23.1499 197.419 22.6221C196.561 22.0833 195.857 21.3961 195.307 20.5604V22.985H191.877V2.26367H195.307V8.88317C195.857 8.03651 196.561 7.34929 197.419 6.82151C198.287 6.29372 199.299 6.02983 200.453 6.02983ZM200.42 20.0821C201.377 20.0821 202.251 19.8402 203.043 19.3564C203.834 18.8726 204.461 18.2239 204.923 17.4102C205.396 16.5965 205.632 15.7004 205.632 14.7218C205.632 13.7212 205.396 12.8141 204.923 12.0004C204.45 11.1867 203.818 10.5435 203.026 10.0707C202.235 9.58688 201.366 9.34498 200.42 9.34498C199.464 9.34498 198.623 9.58688 197.897 10.0707C197.171 10.5545 196.605 11.2032 196.198 12.0169C195.791 12.8306 195.588 13.7322 195.588 14.7218C195.588 15.7114 195.791 16.613 196.198 17.4267C196.605 18.2404 197.171 18.8891 197.897 19.3729C198.623 19.8457 199.464 20.0821 200.42 20.0821Z" fill="#353258"/>
<path d="M164.3 22.9844V6.49111H167.73V8.2394C168.302 7.55768 169 7.0189 169.825 6.62306C170.661 6.22722 171.562 6.0293 172.53 6.0293C173.706 6.0293 174.789 6.31518 175.779 6.88695C176.769 7.44772 177.555 8.19542 178.138 9.13004C178.72 8.19542 179.495 7.44772 180.463 6.88695C181.442 6.31518 182.519 6.0293 183.696 6.0293C184.916 6.0293 186.027 6.32618 187.027 6.91994C188.028 7.5137 188.825 8.31087 189.419 9.31147C190.013 10.3121 190.31 11.4226 190.31 12.6431V22.9844H186.879V13.5173C186.879 12.7916 186.703 12.1263 186.351 11.5216C185.999 10.9168 185.527 10.4275 184.933 10.0537C184.339 9.67982 183.679 9.49289 182.954 9.49289C182.228 9.49289 181.568 9.66882 180.974 10.0207C180.381 10.3725 179.908 10.8508 179.556 11.4556C179.204 12.0604 179.028 12.7476 179.028 13.5173V22.9844H175.598V13.5173C175.598 12.7476 175.422 12.0604 175.07 11.4556C174.718 10.8508 174.24 10.3725 173.635 10.0207C173.041 9.66882 172.381 9.49289 171.656 9.49289C170.941 9.49289 170.281 9.67982 169.676 10.0537C169.083 10.4275 168.61 10.9168 168.258 11.5216C167.906 12.1263 167.73 12.7916 167.73 13.5173V22.9844H164.3Z" fill="#353258"/>
<path d="M147.812 16.8005V6.49219H151.243V15.9594C151.243 16.6961 151.424 17.3668 151.787 17.9715C152.15 18.5763 152.634 19.0601 153.239 19.4229C153.843 19.7748 154.509 19.9507 155.234 19.9507C155.971 19.9507 156.636 19.7748 157.23 19.4229C157.835 19.0601 158.313 18.5763 158.665 17.9715C159.028 17.3668 159.209 16.6961 159.209 15.9594V6.49219H162.64L162.656 22.9855H159.226L159.209 21.2042C158.648 21.886 157.95 22.4247 157.115 22.8206C156.279 23.2164 155.383 23.4143 154.426 23.4143C153.206 23.4143 152.095 23.1175 151.094 22.5237C150.094 21.9299 149.297 21.1328 148.703 20.1322C148.109 19.1316 147.812 18.021 147.812 16.8005Z" fill="#353258"/>
<path d="M115.604 2.26367H119.035V22.985H115.604V20.5604C115.066 21.4181 114.362 22.1108 113.493 22.6386C112.625 23.1554 111.607 23.4138 110.442 23.4138C109.243 23.4138 108.122 23.1884 107.077 22.7376C106.033 22.2867 105.109 21.6655 104.306 20.8738C103.515 20.0711 102.893 19.1475 102.443 18.1029C101.992 17.0584 101.766 15.9368 101.766 14.7383C101.766 13.5398 101.992 12.4182 102.443 11.3737C102.893 10.3181 103.515 9.39446 104.306 8.60278C105.109 7.80011 106.033 7.17336 107.077 6.72254C108.122 6.27173 109.243 6.04632 110.442 6.04632C111.607 6.04632 112.625 6.31021 113.493 6.838C114.362 7.35479 115.066 8.03651 115.604 8.88317V2.26367ZM110.475 20.0986C111.442 20.0986 112.289 19.8622 113.015 19.3894C113.741 18.9056 114.301 18.2569 114.697 17.4432C115.104 16.6295 115.307 15.7279 115.307 14.7383C115.307 13.7377 115.104 12.8306 114.697 12.0169C114.29 11.2032 113.724 10.56 112.998 10.0872C112.284 9.60338 111.442 9.36148 110.475 9.36148C109.518 9.36148 108.644 9.60338 107.852 10.0872C107.072 10.571 106.445 11.2197 105.972 12.0334C105.51 12.8471 105.279 13.7487 105.279 14.7383C105.279 15.7389 105.516 16.646 105.989 17.4597C106.473 18.2624 107.105 18.9056 107.885 19.3894C108.677 19.8622 109.54 20.0986 110.475 20.0986Z" fill="#353258"/>
<path d="M97.2177 6.49111H100.648V22.9844H97.2012L97.0693 20.5929C96.5855 21.4396 95.9312 22.1213 95.1066 22.6381C94.2819 23.1549 93.3088 23.4133 92.1872 23.4133C90.9777 23.4133 89.8397 23.1878 88.7731 22.737C87.7066 22.2752 86.7664 21.6375 85.9528 20.8238C85.1501 20.0101 84.5233 19.0755 84.0725 18.0199C83.6217 16.9534 83.3963 15.8098 83.3963 14.5893C83.3963 13.4128 83.6162 12.3078 84.056 11.2742C84.4959 10.2296 85.1061 9.31696 85.8868 8.53628C86.6675 7.7556 87.5691 7.14534 88.5917 6.70552C89.6253 6.25471 90.7303 6.0293 91.9069 6.0293C93.1054 6.0293 94.1609 6.30419 95.0736 6.85396C95.9972 7.39274 96.7614 8.08546 97.3661 8.93212L97.2177 6.49111ZM92.1048 20.0981C93.0724 20.0981 93.919 19.8617 94.6447 19.3889C95.3705 18.9051 95.9312 18.2563 96.3271 17.4427C96.7339 16.629 96.9373 15.7274 96.9373 14.7378C96.9373 13.7372 96.7339 12.83 96.3271 12.0164C95.9202 11.2027 95.354 10.5595 94.6283 10.0867C93.9135 9.60285 93.0724 9.36095 92.1048 9.36095C91.1482 9.36095 90.274 9.60285 89.4823 10.0867C88.6907 10.5705 88.0639 11.2192 87.6021 12.0329C87.1403 12.8465 86.9094 13.7482 86.9094 14.7378C86.9094 15.7384 87.1458 16.6455 87.6186 17.4592C88.1024 18.2618 88.7346 18.9051 89.5153 19.3889C90.307 19.8617 91.1701 20.0981 92.1048 20.0981Z" fill="#353258"/>
<path d="M74.1986 23.4133C72.6812 23.4133 71.2958 23.0229 70.0423 22.2422C68.7998 21.4615 67.8047 20.417 67.057 19.1085C66.3203 17.789 65.952 16.3321 65.952 14.7378C65.952 13.5283 66.1664 12.4012 66.5952 11.3566C67.024 10.3011 67.6123 9.37744 68.36 8.58576C69.1187 7.78309 69.9983 7.15634 70.9989 6.70552C71.9995 6.25471 73.0661 6.0293 74.1986 6.0293C75.4631 6.0293 76.6231 6.29319 77.6787 6.82098C78.7343 7.33777 79.6359 8.05798 80.3836 8.9816C81.1313 9.89423 81.6811 10.9498 82.0329 12.1483C82.3848 13.3358 82.4893 14.6003 82.3463 15.9418H69.63C69.7729 16.7005 70.0478 17.3877 70.4546 18.0034C70.8725 18.6082 71.4003 19.0865 72.038 19.4384C72.6867 19.7902 73.4069 19.9716 74.1986 19.9826C75.0343 19.9826 75.793 19.7737 76.4747 19.3559C77.1674 18.9381 77.7337 18.3608 78.1735 17.6241L81.6536 18.4323C80.9939 19.8947 79.9988 21.0932 78.6683 22.0278C77.3379 22.9514 75.848 23.4133 74.1986 23.4133ZM69.5145 13.3193H78.8827C78.7728 12.5277 78.4924 11.813 78.0416 11.1752C77.6017 10.5265 77.0465 10.0152 76.3757 9.64133C75.716 9.25649 74.9903 9.06407 74.1986 9.06407C73.4179 9.06407 72.6922 9.25099 72.0215 9.62484C71.3618 9.99869 70.812 10.51 70.3722 11.1587C69.9433 11.7965 69.6575 12.5167 69.5145 13.3193Z" fill="#353258"/>
<path d="M57.3953 22.9844V6.49111H60.8259V8.2394C61.3977 7.55768 62.1014 7.0189 62.9371 6.62306C63.7727 6.22722 64.6744 6.0293 65.642 6.0293C66.2577 6.0293 67.5518 6.0293 68.7574 6.62306L67.4514 7.98978L66.1038 9.74029C65.675 9.57536 65.2461 9.49289 64.8173 9.49289C64.0916 9.49289 63.4264 9.67432 62.8216 10.0372C62.2169 10.389 61.7331 10.8673 61.3702 11.4721C61.0074 12.0768 60.8259 12.7476 60.8259 13.4843V22.9844H57.3953Z" fill="#353258"/>
<path d="M47.4953 6.02983C49.1006 6.02983 50.5575 6.42017 51.866 7.20085C53.1855 7.98153 54.2356 9.03161 55.0162 10.3511C55.7969 11.6595 56.1873 13.1165 56.1873 14.7218C56.1873 15.9203 55.9619 17.0474 55.511 18.1029C55.0602 19.1475 54.4335 20.0711 53.6308 20.8738C52.8391 21.6655 51.9155 22.2867 50.8599 22.7376C49.8153 23.1884 48.6938 23.4138 47.4953 23.4138C46.3408 23.4138 45.3292 23.1499 44.4605 22.6221C43.6029 22.0833 42.8991 21.3961 42.3494 20.5604V22.985H38.9188V2.26367H42.3494V8.88317C42.8991 8.03651 43.6029 7.34929 44.4605 6.82151C45.3292 6.29372 46.3408 6.02983 47.4953 6.02983ZM47.4623 20.0821C48.4189 20.0821 49.2931 19.8402 50.0847 19.3564C50.8764 18.8726 51.5032 18.2239 51.965 17.4102C52.4378 16.5965 52.6742 15.7004 52.6742 14.7218C52.6742 13.7212 52.4378 12.8141 51.965 12.0004C51.4922 11.1867 50.8599 10.5435 50.0682 10.0707C49.2766 9.58688 48.4079 9.34498 47.4623 9.34498C46.5057 9.34498 45.6645 9.58688 44.9388 10.0707C44.2131 10.5545 43.6468 11.2032 43.24 12.0169C42.8332 12.8306 42.6298 13.7322 42.6298 14.7218C42.6298 15.7114 42.8332 16.613 43.24 17.4267C43.6468 18.2404 44.2131 18.8891 44.9388 19.3729C45.6645 19.8457 46.5057 20.0821 47.4623 20.0821Z" fill="#353258"/>
<path fill-rule="evenodd" clip-rule="evenodd" d="M134.974 19.9313L131.896 18.2577C131.465 18.7658 130.941 19.1746 130.324 19.4839C129.706 19.7932 129.055 19.9478 128.371 19.9478C127.927 19.9478 127.503 19.8879 127.097 19.7681L125.91 23.0165C126.688 23.2684 127.508 23.3944 128.371 23.3944C129.717 23.3944 130.964 23.0795 132.111 22.4499C133.269 21.8202 134.224 20.9807 134.974 19.9313ZM122.069 20.3336C121.751 19.9437 121.464 19.5224 121.205 19.0696C120.466 17.744 120.096 16.2804 120.096 14.6786C120.096 13.4635 120.312 12.3312 120.742 11.2818C121.172 10.2213 121.762 9.29338 122.513 8.49802C123.274 7.69162 124.156 7.06196 125.16 6.60905C126.164 6.15614 127.235 5.92969 128.371 5.92969C129.717 5.92969 130.964 6.24452 132.111 6.87417C133.269 7.50383 134.224 8.34889 134.974 9.40937L131.896 11.0829C131.432 10.5306 130.892 10.1108 130.274 9.82362C129.656 9.52536 129.022 9.37623 128.371 9.37623C127.466 9.37623 126.644 9.62478 125.905 10.1219C125.177 10.6079 124.598 11.2542 124.167 12.0606C123.748 12.8559 123.539 13.7286 123.539 14.6786C123.539 15.6176 123.754 16.4902 124.184 17.2966C124.318 17.5441 124.466 17.7766 124.629 17.9941L122.069 20.3336Z" fill="#353258"/>
<path fill-rule="evenodd" clip-rule="evenodd" d="M30.228 19.3745C34.1362 16.9907 34.1362 11.3375 30.228 8.95365L16.8815 0.812979C13.2265 -1.41637 8.53088 1.20242 8.53088 5.47017C8.53088 7.36886 9.52126 9.13131 11.1464 10.1247L16.4174 13.3465C16.7071 13.5236 16.8836 13.8377 16.8836 14.1761C16.8836 14.5189 16.7025 14.8364 16.4069 15.012L13.0708 16.9939L15.0059 20.223L18.3419 18.2412C19.7796 17.3871 20.6602 15.843 20.6602 14.1761C20.6602 12.5305 19.8018 11.0029 18.3932 10.142L13.1222 6.92009C12.616 6.61065 12.3074 6.06163 12.3074 5.47017C12.3074 4.14072 13.7702 3.32494 14.9088 4.0194L28.2552 12.1601C29.7584 13.0769 29.7584 15.2512 28.2553 16.1681L13.9544 24.8909C12.6658 25.6768 10.9777 25.0715 10.4883 23.648L9.30871 20.2171C10.6231 19.1666 11.4651 17.5499 11.4651 15.7365C11.4651 12.5705 8.89856 10.0039 5.73256 10.0039C2.56655 10.0039 0 12.5705 0 15.7365C0 18.9025 2.56655 21.469 5.73256 21.469C5.73751 21.469 5.74247 21.469 5.74742 21.469L6.91529 24.8658C8.18777 28.567 12.5769 30.1408 15.9272 28.0973L30.228 19.3745ZM8.17594 15.7365C8.17594 17.0859 7.082 18.1798 5.73256 18.1798C4.38311 18.1798 3.28917 17.0859 3.28917 15.7365C3.28917 14.387 4.38311 13.2931 5.73256 13.2931C7.082 13.2931 8.17594 14.387 8.17594 15.7365Z" fill="#353258"/>
</svg>
